<svg width="72" height="72" viewBox="0 0 72 72" fill="none" xmlns="http://www.w3.org/2000/svg">
<path d="M26.3604 0.00390625C27.2639 0.0404472 28.1389 0.331939 28.8838 0.844727L29.042 0.958008L29.1943 1.07812C29.9453 1.69039 30.4944 2.51709 30.7666 3.4502C30.7702 3.46256 30.7739 3.47491 30.7773 3.4873L45.167 54.6836L49.5176 39.208C50.1275 37.0347 51.4322 35.1206 53.2324 33.7588C55.031 32.3982 57.2254 31.6639 59.4805 31.667H67.333C69.5422 31.667 71.333 33.4579 71.333 35.667C71.3328 37.876 69.542 39.667 67.333 39.667H59.4717C58.9619 39.6659 58.4652 39.8311 58.0586 40.1387C57.652 40.4463 57.3574 40.8792 57.2197 41.3701L57.2188 41.3721L49.7773 67.8457C49.7738 67.8582 49.7702 67.8713 49.7666 67.8838C49.4763 68.8788 48.8712 69.753 48.042 70.375C47.2126 70.997 46.2036 71.3329 45.167 71.333C44.1303 71.333 43.1214 70.997 42.292 70.375C41.4627 69.753 40.8567 68.8789 40.5664 67.8838C40.5627 67.8712 40.5592 67.8583 40.5557 67.8457L26.166 16.6475L21.8154 32.1221L21.8164 32.123C21.2091 34.2887 19.9114 36.1972 18.1211 37.5586C16.3308 38.9199 14.1455 39.6605 11.8965 39.667H4C1.79097 39.667 0.000177288 37.876 0 35.667C0 33.4579 1.79086 31.667 4 31.667H11.874C12.3817 31.6654 12.8752 31.4977 13.2793 31.1904C13.6835 30.883 13.9762 30.4518 14.1133 29.9629L14.1143 29.9609L21.5557 3.4873L21.5664 3.4502C21.8567 2.45489 22.4626 1.58007 23.292 0.958008L23.4492 0.844727C24.2472 0.295279 25.1951 0 26.167 0L26.3604 0.00390625Z" fill="white"/>
</svg>
